# xmcd CD database file
#
# Track frame offsets:
#	150
#	14238
#	26135
#	39646
#	54299
#	72211
#	84754
#	98439
#	109507
#	120002
#
# Disc length: 1770 seconds
#
# Revision: 0
# Processed by: cddbd v1.4PL0 Copyright (c) Steve Scherf et al.
# Submitted via: CDex 1.50beta8
#
DISCID=6d06e80a
DTITLE=Orietta Berti - Io, tu e le rose e altri successi
DYEAR=1900
DGENRE=Country
TTITLE0=Tu sei quello
TTITLE1=Io ti darò di più
TTITLE2=Fin che la barca và
TTITLE3=Till
TTITLE4=Quelli eran giorni
TTITLE5=Eternamente
TTITLE6=Io, tu e le rose
TTITLE7=Non illuderti mai
TTITLE8=Via dei ciclamini
TTITLE9=Tipitipitì
EXTD=
EXTT0=
EXTT1=
EXTT2=
EXTT3=
EXTT4=
EXTT5=
EXTT6=
EXTT7=
EXTT8=
EXTT9=
PLAYORDER=
